HIERARCHY
ROOT Hips
{
  OFFSET 57.8838 95.319 338.509
  CHANNELS 6 Xposition Yposition Zposition Zrotation Xrotation Yrotation
  JOINT LeftUpLeg
  {
    OFFSET 8.64259 1.95398 -2.38835
    CHANNELS 3 Zrotation Xrotation Yrotation
    JOINT LeftLeg
    {
      OFFSET 43.7702 0 0
      CHANNELS 3 Zrotation Xrotation Yrotation
      JOINT LeftFoot
      {
        OFFSET 40.6238 0 0
        CHANNELS 3 Zrotation Xrotation Yrotation
        JOINT LeftToeBase
        {
          OFFSET 12.7242 0 0
          CHANNELS 3 Zrotation Xrotation Yrotation
          End Site
          {
            OFFSET 0 0 0
          }
        }
      }
    }
  }
  JOINT RightUpLeg
  {
    OFFSET -8.2249 1.95398 -2.59336
    CHANNELS 3 Zrotation Xrotation Yrotation
    JOINT RightLeg
    {
      OFFSET 43.5653 0 0
      CHANNELS 3 Zrotation Xrotation Yrotation
      JOINT RightFoot
      {
        OFFSET 40.6238 0 0
        CHANNELS 3 Zrotation Xrotation Yrotation
        JOINT RightToeBase
        {
          OFFSET 12.7242 0 0
          CHANNELS 3 Zrotation Xrotation Yrotation
          End Site
          {
            OFFSET 0 0 0
          }
        }
      }
    }
  }
  JOINT Spine
  {
    OFFSET 0.165834 0.87714 6.61349
    CHANNELS 3 Zrotation Xrotation Yrotation
    JOINT Spine1
    {
      OFFSET 7.38963 1.71661e-005 0
      CHANNELS 3 Zrotation Xrotation Yrotation
      JOINT Spine2
      {
        OFFSET 11.9445 1.14441e-005 0
        CHANNELS 3 Zrotation Xrotation Yrotation
        JOINT Spine3
        {
          OFFSET 14.7254 4.19617e-005 0
          CHANNELS 3 Zrotation Xrotation Yrotation
          JOINT Spine4
          {
            OFFSET 10.9679 0 0
            CHANNELS 3 Zrotation Xrotation Yrotation
            JOINT RightShoulder
            {
              OFFSET 2.46616 -1.6653 3.69651
              CHANNELS 3 Zrotation Xrotation Yrotation
              JOINT RightArm
              {
                OFFSET 13.0012 0 0
                CHANNELS 3 Zrotation Xrotation Yrotation
                JOINT RightForeArm
                {
                  OFFSET 28.7848 1.62311e-005 0
                  CHANNELS 3 Zrotation Xrotation Yrotation
                  JOINT RightHand
                  {
                    OFFSET 26.5688 1.62095e-005 0
                    CHANNELS 3 Zrotation Xrotation Yrotation
                    End Site
                    {
                      OFFSET 0 0 0
                    }
                  }
                }
              }
            }
            JOINT LeftShoulder
            {
              OFFSET 2.38034 -1.29275 -3.7523
              CHANNELS 3 Zrotation Xrotation Yrotation
              JOINT LeftArm
              {
                OFFSET 16.3182 6.07031e-005 0
                CHANNELS 3 Zrotation Xrotation Yrotation
                JOINT LeftForeArm
                {
                  OFFSET 27.0901 0 0
                  CHANNELS 3 Zrotation Xrotation Yrotation
                  JOINT LeftHand
                  {
                    OFFSET 24.5451 1.51738e-005 0
                    CHANNELS 3 Zrotation Xrotation Yrotation
                    End Site
                    {
                      OFFSET 0 0 0
                    }
                  }
                }
              }
            }
            JOINT Neck
            {
              OFFSET 5.0226 -0.0266342 0
              CHANNELS 3 Zrotation Xrotation Yrotation
              JOINT Head
              {
                OFFSET 6.69364 2.86102e-005 0
                CHANNELS 3 Zrotation Xrotation Yrotation
                End Site
                {
                  OFFSET 0 0 0
                }
              }
            }
          }
        }
      }
    }
  }
}
MOTION
Frames:	6
Frame Time:	0.0416667
-143.979 91.6852 136.802 97.6017 49.5556 83.795 177.376 15.8055 84.031 -34.5031 20.4151 3.27308 62.7111 4.43171 13.1338 40.7235 4.93186 1.58802 167.126 12.2603 86.7874 -93.1566 -18.3746 -1.65962 55.2307 9.54623 6.74801 33.0716 -6.45371 -10.2742 0.237079 8.27615 -89.8072 10.321 0.560594 0.334829 -1.34983 0.57479 0.309818 -23.8853 0.434048 0.487823 -3.87264 0.434036 0.487822 93.2434 -56.6907 -94.754 25.3882 -6.08874 -8.77736 3.84352 -7.49893 -9.81573 -9.63225 -0.322868 -1.27403 -86.529 -55.7309 84.7834 -33.1402 -24.0067 -29.2758 3.27958 60.5095 0.00502576 5.85787 -0.515673 -13.9134 8.64612 -1.10825 -4.18858 -12.3358 -1.20313 11.163 
-139.365 92.7517 131.642 100.223 50.1004 84.5239 179.231 8.24181 86.4402 -33.0275 22.5912 4.31623 64.2901 6.72693 14.4423 42.6499 5.82539 2.61514 163.999 22.5429 93.914 -102.983 -16.0517 -1.73734 59.2701 2.4498 3.14531 37.1572 -12.9367 -9.98246 -0.0254826 8.16152 -90.1108 10.5507 -0.101606 -0.21105 -1.12027 -0.110814 -0.20638 -23.6553 -0.0334844 -0.23183 -3.64264 -0.0334899 -0.231837 92.8899 -56.9879 -95.2116 25.9863 -3.37758 -6.91799 3.90536 -6.79904 -9.80238 -11.1345 -0.411093 -0.923299 -85.9433 -55.0693 85.524 -30.6058 -17.9096 -29.2027 -2.80058 52.0934 -0.00883788 7.53031 -0.913205 -14.7087 6.63853 -0.334588 -6.11476 -13.9605 -0.344201 11.6407 
-134.971 93.2776 126.76 102.153 49.7903 84.3824 -178.612 1.35535 89.0009 -30.1829 25.0063 4.3895 64.8053 8.67049 15.7629 44.917 6.90083 3.50812 163.47 30.4362 97.8771 -94.6877 -14.6654 -0.895154 63.3864 -1.81322 5.36411 38.0537 -14.4305 -10.3062 -0.220227 8.10659 -90.2595 10.66 -0.558077 -0.464953 -1.01087 -0.577981 -0.439956 -23.5459 -0.392525 -0.611184 -3.53326 -0.392531 -0.611181 92.8808 -56.4945 -95.3021 26.605 -0.745362 -5.33832 4.00964 -6.58171 -9.16388 -11.8737 -0.466161 -0.637314 -85.7962 -54.9917 85.723 -27.4792 -13.2263 -29.6019 -0.58489 49.3185 -8.05978 4.34724 -0.818306 -16.5229 6.06678 0.507455 -7.68835 -14.006 0.612768 13.0011 
-130.637 93.5373 122.127 102.365 51.1879 85.361 -176.671 -3.86245 90.0563 -28.8705 27.8862 4.84225 64.8136 9.11849 15.3405 47.0267 8.0068 4.87909 165.831 31.8301 97.8711 -67.9432 -12.2016 2.21981 65.9759 -3.76392 8.43248 38.0068 -14.1689 -9.53763 -0.36872 8.04289 -90.4434 10.7837 -0.938813 -0.794333 -0.887148 -0.97285 -0.752249 -23.4219 -0.656672 -1.03975 -3.40922 -0.656692 -1.03975 92.7359 -57.296 -95.3817 25.3418 1.81222 -4.66564 4.37932 -5.69838 -7.92744 -12.5651 -0.502774 -0.551085 -85.7576 -55.6187 85.8598 -26.5138 -10.1328 -32.5448 5.5891 50.5425 -18.1548 6.40451 -0.986849 -15.9821 6.38758 0.390152 -7.76223 -13.2268 0.587321 13.3411 
-126.002 93.8555 117.342 100.868 53.509 84.677 -175.785 -8.0985 90.7892 -25.0644 29.0347 4.48682 63.496 7.46641 11.9071 49.1334 9.00129 5.09048 173.187 27.4048 92.5508 -31.2265 -6.15868 2.32521 61.7046 2.12417 9.0885 29.1932 -0.322529 -6.66894 -0.498465 7.86334 -90.2817 11.1457 -1.123 -0.452274 -0.524784 -1.1418 -0.402405 -23.0623 -0.935143 -0.76888 -3.04964 -0.935151 -0.768892 93.006 -57.2035 -95.0137 25.5152 1.70632 -3.13427 4.54242 -5.40854 -6.98173 -11.9132 -0.46434 -0.671429 -86.0044 -55.0417 85.4328 -27.8638 -7.59824 -34.9109 9.71522 52.1947 -23.17 4.43421 -0.814334 -16.5683 7.07783 -0.478839 -8.10622 -13.8427 -0.210773 13.2082 
-120.714 93.5636 112.324 102.53 56.2335 82.3784 -175.102 -12.8839 92.1252 -24.7622 30.7441 5.51618 61.5917 6.68183 8.27054 53.0432 11.053 6.34709 175.485 24.3543 90.7211 -19.1267 0.952542 0.654217 65.2271 3.74743 14.2639 27.7039 1.79439 -5.15491 -0.730843 7.889 -90.2553 11.094 -1.57311 -0.355691 -0.575977 -1.58724 -0.286103 -23.1171 -1.39348 -0.812108 -3.1044 -1.39347 -0.812119 94.36 -56.4421 -93.1933 26.5694 2.59876 -1.98824 4.20556 -5.65093 -7.0395 -10.5885 -0.296195 -2.00999 -85.9409 -53.7755 85.3534 -28.6818 -5.35726 -34.6561 8.00279 49.2371 -23.095 1.9865 -0.640795 -18.754 7.9206 -0.559856 -8.06643 -14.7324 -0.333627 13.1193 
